<?xml version="1.0" standalone="no"?><!DOCTYPE svg PUBLIC "-//W3C//DTD SVG 1.1//EN" "http://www.w3.org/Graphics/SVG/1.1/DTD/svg11.dtd"><svg t="1587628579461" class="icon" viewBox="0 0 1024 1024" version="1.1" xmlns="http://www.w3.org/2000/svg" p-id="18612" width="40" height="40" xmlns:xlink="http://www.w3.org/1999/xlink"><defs><style type="text/css"></style></defs><path d="M929.792 197.632h-118.784L757.76 101.888c-9.216-11.776-23.04-20.992-39.424-20.992H469.504c-18.432 0-34.816 9.216-44.032 25.6L371.712 199.68H255.488v-25.6c0-11.776-11.776-23.04-23.04-23.04h-46.592c-13.824 0-23.04 11.776-23.04 23.04v23.04H92.672C41.472 197.632 0 239.104 0 290.304v558.08c0 51.2 41.984 93.184 93.184 93.184h837.12c51.2 0 93.184-41.984 93.184-93.184v-558.08c-0.512-51.2-42.496-92.672-93.696-92.672zM467.456 130.048l2.56-2.56h246.272l39.424 69.632h-327.68l39.424-67.072z m508.928 718.336c0 25.6-20.992 46.592-46.592 46.592H92.672c-25.6 0-46.592-20.992-46.592-46.592v-558.08c0-25.6 20.992-46.592 46.592-46.592h837.12c25.6 0 46.592 20.992 46.592 46.592v558.08z m0 0" p-id="18613" fill="#1677ff"></path><path d="M615.936 360.448c-120.832 0-220.672 99.84-220.672 220.672s99.84 220.672 220.672 220.672 220.672-99.84 220.672-220.672c0.512-120.832-99.84-220.672-220.672-220.672z m0 395.264c-95.232 0-174.592-78.848-174.592-174.592 0-95.232 78.848-174.592 174.592-174.592 95.232 0 174.592 78.848 174.592 174.592 0 95.232-78.848 174.592-174.592 174.592zM302.08 336.896H139.264c-11.776 0-23.04 11.776-23.04 23.04v23.04c0 11.776 11.776 23.04 23.04 23.04H302.08c13.824 0 23.04-11.776 23.04-23.04v-23.04c0.512-11.264-11.264-23.04-23.04-23.04z m0 0" p-id="18614" fill="#1677ff"></path></svg>
