<?xml version="1.0" encoding="utf-8"?>
<!-- Generator: Adobe Illustrator 23.0.2, SVG Export Plug-In . SVG Version: 6.00 Build 0)  -->
<svg version="1.1" id="图层_1" xmlns="http://www.w3.org/2000/svg" xmlns:xlink="http://www.w3.org/1999/xlink" x="0px" y="0px"
	 viewBox="0 0 800 800" style="enable-background:new 0 0 800 800;" xml:space="preserve">
<style type="text/css">
	.st0{fill:#FFFFFF;}
	.st1{fill:#F0D8BB;}
	.st2{fill:none;stroke:#000000;stroke-width:4;stroke-miterlimit:10;}
	.st3{fill:none;stroke:#000000;stroke-width:4;stroke-linecap:round;stroke-miterlimit:10;}
	.st4{fill:#FC7200;}
	.st5{fill:#FC9B01;}
	.st6{fill:#FE9C00;}
	.st7{fill:#F1DABC;}
</style>
<g>
	<path class="st0" d="M485.1,246.2c-11.5,0.6-17.6-4.5-16.7-16.6c0.8-10-2.1-17.8-12.3-20.9c-7.7-2.3-14.8-0.7-19.8,6.2
		c-5.7,7.9-5.1,15.8,0.8,23.2c6.6,8.4,4.6,15.4-2.7,22c-1.1,1-2.1,2.1-3.2,3.1c-16.4,16.6-16.2,16.4-0.1,32.2
		c3.4,3.4,4.9,3.4,7.9,0.3c4.7-5.1,9.9-9.7,14.6-14.7c7-7.5,14.5-10.1,23.4-3c7.6,6,15.5,6.5,23.1,0.5c7-5.5,9.1-13.3,5.6-21.3
		C502,248.6,494.7,244.8,485.1,246.2z"/>
	<path class="st1" d="M495.2,248c-11.5,0.6-17.6-4.5-16.7-16.6c0.8-10-2.1-17.8-12.3-20.9c-7.7-2.3-14.8-0.7-19.8,6.2
		c-5.7,7.9-5.1,15.8,0.8,23.2c6.6,8.4,4.6,15.4-2.7,22c-1.1,1-2.1,2.1-3.2,3.1c-16.4,16.6-16.2,16.4-0.1,32.2
		c3.4,3.4,4.9,3.4,7.9,0.3c4.7-5.1,9.9-9.7,14.6-14.7c7-7.5,14.5-10.1,23.4-3c7.6,6,15.5,6.5,23.1,0.5c7-5.5,9.1-13.3,5.6-21.3
		C512.1,250.4,504.8,246.6,495.2,248z"/>
	<path class="st2" d="M485.1,246.2c-11.5,0.6-17.6-4.5-16.7-16.6c0.8-10-2.1-17.8-12.3-20.9c-7.7-2.3-14.8-0.7-19.8,6.2
		c-5.7,7.9-5.1,15.8,0.8,23.2c6.6,8.4,4.6,15.4-2.7,22c-1.1,1-2.1,2.1-3.2,3.1c-16.4,16.6-16.2,16.4-0.1,32.2
		c3.4,3.4,4.9,3.4,7.9,0.3c4.7-5.1,9.9-9.7,14.6-14.7c7-7.5,14.5-10.1,23.4-3c7.6,6,15.5,6.5,23.1,0.5c7-5.5,9.1-13.3,5.6-21.3
		C502,248.6,494.7,244.8,485.1,246.2z"/>
	<path class="st0" d="M358,305.9"/>
	<path class="st0" d="M358,305.9c-13.6,8.7-26.7,18.6-37.7,27.7c40,10.2,95.8,3.7,130.2,12.7c9.1,2.4,11.6-4.1,8.7-22.1
		c-4.4-27.2-13.4-40.8-27-43.6c-16.4-3.4-38.2,4.5-59.9,16.7"/>
	<path class="st2" d="M364.9,301.6"/>
	<path class="st3" d="M364.9,301.6c-16.1,9.7-31.8,21.4-44.7,32.1c40,10.2,95.8,3.7,130.2,12.7c9.1,2.4,11.6-4.1,8.7-22.1
		c-4.4-27.2-13.4-40.8-27-43.6c-15.4-3.2-35.7,3.6-56.2,14.6"/>
	<path class="st0" d="M435.3,337.9c-14.8-1.8-27.8-2.8-40.5-4.9c-53-8.5-102.3,0.4-146.1,32.4c-49.3,36.1-75.4,85-77.5,146.3
		c-0.4,13.1-0.3,26.3-0.1,39.4c0.2,14.1,7.5,21.9,21.2,21.9c90.5,0.1,180.9,0.5,271.4-0.2c46.7-0.3,87.6-42.9,88.3-89.6
		c0.2-14.3-1.4-28.3-5.6-43.1c-6.8,6.5-9.3,14.8-13.8,21.8c-10,15.5-19.4,31.4-34,43c-27.4,21.6-57.9,25.8-89.8,12.4
		c-32.7-13.8-50.1-40.3-52.4-75.1c-2.1-32.8,12.8-58.7,39.2-77.8C407.8,355.5,420.7,347.6,435.3,337.9z"/>
	<path class="st4" d="M476.6,324.2c-4.4-27.2-13.4-40.8-27-43.6c-5.8-1.2-12.2-1-19.1,0.3c12.9,3.4,21.5,16.9,25.7,43.3
		c1.6,9.9,1.5,16.3-0.3,19.7c4.2,0.7,8.2,1.4,11.9,2.4C477,348.8,479.5,342.2,476.6,324.2z"/>
	<path class="st5" d="M456.3,324.2c-4.3-26.4-12.8-39.9-25.7-43.3c-29.4,5.6-66.7,31.1-92.9,52.7c35.7,9.1,83.9,4.9,118.3,10.3
		C457.9,340.6,457.9,334.1,456.3,324.2z"/>
	<path class="st4" d="M563.8,440.1c-6.8,6.5-9.3,14.8-13.8,21.8c-6.7,10.4-13.2,21.1-21.2,30.5c-5.5,42.9-44,80.1-87.6,80.4
		c-33.2,0.2-66.3,0.3-99.5,0.4c46.5,0,92.9,0,139.4-0.4c46.7-0.3,87.6-42.9,88.3-89.6C569.6,468.9,568,454.9,563.8,440.1z"/>
	<path class="st6" d="M412.9,337.9c-14.6,9.7-27.5,17.6-39.8,26.5c-26.3,19.1-41.3,45-39.2,77.8c2.2,34.8,19.6,61.3,52.4,75.1
		c19.1,8.1,37.7,9.8,55.5,5.2c-5.1-1.3-10.3-3-15.6-5.2c-32.7-13.8-50.1-40.3-52.4-75.1c-2.1-32.8,12.8-58.7,39.2-77.8
		c12.2-8.9,25.2-16.8,39.8-26.5c-14.8-1.8-27.8-2.8-40.5-4.9c-19.3-3.1-38.2-3.9-56.5-2.1c5.5,0.5,11,1.2,16.6,2.1
		C385.1,335.1,398,336.2,412.9,337.9z"/>
	<path class="st6" d="M516,504.9c4.8-3.8,9-8,12.8-12.5c0.4-3,0.6-6.1,0.7-9.2c0.2-14.3-1.4-28.3-5.6-43.1
		c-6.8,6.5-9.3,14.8-13.8,21.8c-10,15.5-19.4,31.4-34,43c-11,8.6-22.4,14.5-34.3,17.6C468,528.8,493.1,522.9,516,504.9z"/>
	<path class="st6" d="M528.8,492.4c-3.9,4.5-8.1,8.7-12.8,12.5c-22.9,18-48,24-74.2,17.6c-17.7,4.6-36.4,2.9-55.5-5.2
		c-32.7-13.8-50.1-40.3-52.4-75.1c-2.1-32.8,12.8-58.7,39.2-77.8c12.2-8.9,25.2-16.8,39.8-26.5c-14.8-1.8-27.8-2.8-40.5-4.9
		c-5.6-0.9-11.1-1.6-16.6-2.1c-31.8,3.1-61.9,14.1-89.6,34.5c-49.3,36.1-75.4,85-77.5,146.3c-0.4,13.1-0.3,26.3-0.1,39.4
		c0.2,14.1,7.5,21.9,21.2,21.9c44,0,88,0.2,132,0.2c33.2,0,66.3-0.1,99.5-0.4C484.8,572.5,523.3,535.3,528.8,492.4z"/>
	<path class="st0" d="M537.9,573.2c-132.4,0-264.7,0-397.9,0c4.1,11.6,12,17.8,23.5,19.9c3.7,0.7,7.5,0.6,11.2,0.6
		c109.9,0,219.9,0,329.8,0C523.4,593.7,531.8,588.5,537.9,573.2z"/>
	<path class="st7" d="M552.9,573.2c-132.4,0-264.7,0-397.9,0c4.1,11.6,12,17.8,23.5,19.9c3.7,0.7,7.5,0.6,11.2,0.6
		c109.9,0,219.9,0,329.8,0C538.4,593.7,546.8,588.5,552.9,573.2z"/>
	<path class="st3" d="M549.1,503.4c1.7-6.6,2.7-13.3,2.8-20.2c0.2-13.2-1.2-26.2-4.6-39.7"/>
	<path class="st3" d="M549.1,503.4"/>
	<path class="st3" d="M191.5,430.5c-12.5,24-19.3,51.1-20.3,81.2c-0.4,13.1-0.3,26.3-0.1,39.4c0.2,14.1,7.5,21.9,21.2,21.9
		c90.5,0.1,180.9,0.5,271.4-0.2c34.9-0.2,66.5-24,80.6-55.5"/>
	<path class="st3" d="M431.4,340.5c1.3-0.8,2.6-1.7,3.9-2.6c-14.8-1.8-27.8-2.8-40.5-4.9c-53-8.5-102.3,0.4-146.1,32.4
		c-22,16.1-39.3,34.7-52,55.8"/>
	<path class="st2" d="M537.9,573.2c-132.4,0-264.7,0-397.9,0c4.1,11.6,12,17.8,23.5,19.9c3.7,0.7,7.5,0.6,11.2,0.6
		c109.9,0,219.9,0,329.8,0C523.4,593.7,531.8,588.5,537.9,573.2z"/>
	<path class="st0" d="M631.2,269c-11.5,0.6-17.6-4.5-16.7-16.6c0.8-10-2.1-17.8-12.3-20.9c-7.7-2.3-14.8-0.7-19.8,6.2
		c-5.7,7.9-5.1,15.8,0.8,23.2c6.6,8.4,4.6,15.4-2.7,22c-1.1,1-2.1,2.1-3.2,3.1c-16.4,16.6-16.2,16.4-0.1,32.2
		c3.4,3.4,4.9,3.4,7.9,0.3c4.7-5.1,9.9-9.7,14.6-14.7c7-7.5,14.5-10.1,23.4-3c7.6,6,15.5,6.5,23.1,0.5c7-5.5,9.1-13.3,5.6-21.3
		C648.1,271.4,640.8,267.6,631.2,269z"/>
	<path class="st1" d="M639,273.2c-11.5,0.6-17.6-4.5-16.7-16.6c0.8-10-2.1-17.8-12.3-20.9c-7.7-2.3-14.8-0.7-19.8,6.2
		c-5.7,7.9-5.1,15.8,0.8,23.2c6.6,8.4,4.6,15.4-2.7,22c-1.1,1-2.1,2.1-3.2,3.1c-16.4,16.6-16.2,16.4-0.1,32.2
		c3.4,3.4,4.9,3.4,7.9,0.3c4.7-5.1,9.9-9.7,14.6-14.7c7-7.5,14.5-10.1,23.4-3c7.6,6,15.5,6.5,23.1,0.5c7-5.5,9.1-13.3,5.6-21.3
		C655.9,275.5,648.6,271.7,639,273.2z"/>
	<path class="st2" d="M631.2,269c-11.5,0.6-17.6-4.5-16.7-16.6c0.8-10-2.1-17.8-12.3-20.9c-7.7-2.3-14.8-0.7-19.8,6.2
		c-5.7,7.9-5.1,15.8,0.8,23.2c6.6,8.4,4.6,15.4-2.7,22c-1.1,1-2.1,2.1-3.2,3.1c-16.4,16.6-16.2,16.4-0.1,32.2
		c3.4,3.4,4.9,3.4,7.9,0.3c4.7-5.1,9.9-9.7,14.6-14.7c7-7.5,14.5-10.1,23.4-3c7.6,6,15.5,6.5,23.1,0.5c7-5.5,9.1-13.3,5.6-21.3
		C648.1,271.4,640.8,267.6,631.2,269z"/>
	<path class="st0" d="M353.9,441.9c1.6,34.1,17.4,61.7,49.9,77.8c31.4,15.6,65.1,15,90.4-8.5c51.5-47.7,82.1-107.9,88.4-178.6
		c2.1-23.1-8.6-32.2-31.7-32.8c-16-0.4-31.4,2.7-46.5,7.8c-41,13.7-78.9,33.4-113.2,59.9C367.8,385.8,354.8,409.7,353.9,441.9z"/>
	<path class="st4" d="M568.5,299.8c-0.1,0-0.2,0-0.3,0c2.4,4.9,3.2,11.2,2.5,19.3c-6.4,70.7-37,130.9-88.4,178.6
		c-20.4,18.9-46.2,22.9-71.9,15.7c3.4,2.3,7.1,4.4,11,6.3c31.4,15.6,65.1,15,90.4-8.5c51.5-47.7,82.1-107.9,88.4-178.6
		C602.2,309.5,591.5,300.4,568.5,299.8z"/>
	<path class="st6" d="M482.2,497.7c51.5-47.7,82.1-107.9,88.4-178.6c0.7-8.1-0.1-14.4-2.5-19.3c-15.9-0.3-31.2,2.8-46.1,7.8
		c-41,13.7-78.9,33.4-113.2,59.9c-23.6,18.3-36.6,42.2-37.4,74.3c1.4,30,13.9,54.9,39,71.5C436,520.6,461.8,516.6,482.2,497.7z"/>
	<path class="st2" d="M405.8,356.9"/>
	<path class="st3" d="M575.2,376.9c3.6-14.3,6.1-29,7.5-44.3c2.1-23.1-8.6-32.2-31.7-32.8c-16-0.4-31.4,2.7-46.5,7.8
		c-30.1,10.1-58.5,23.4-85,40.2"/>
	<path class="st3" d="M575.2,376.9"/>
	<path class="st3" d="M405.8,356.9c-4.9,3.4-9.7,7-14.5,10.6c-23.6,18.3-36.6,42.2-37.4,74.3c1.6,34.1,17.4,61.7,49.9,77.8
		c31.4,15.6,65.1,15,90.4-8.5c36.3-33.7,62.3-73.6,76.6-119.1"/>
	<path class="st3" d="M255.7,373.5c0,0-8.7,7.6-9.9,8.7"/>
	<path class="st3" d="M239,388.9c0,0-25.8,25.9-36.6,55.7"/>
	<path class="st3" d="M371.4,444.6c0,0,1.7,22.6,9,35"/>
	<path class="st3" d="M383.8,485.9c0,0,2.8,5.4,7.3,10.4"/>
</g>
</svg>
