
<svg width="127px" height="121px" viewBox="0 0 127 121" version="1.1" xmlns="http://www.w3.org/2000/svg" xmlns:xlink="http://www.w3.org/1999/xlink">
    <g id="Page-1" stroke="none" stroke-width="1" fill="none" fill-rule="evenodd">
        <g id="30-Cute-Christmas-Avatar" transform="translate(-1226.000000, -1635.000000)" fill-rule="nonzero">
            <g id="snowman" transform="translate(1226.000000, 1635.000000)">
                <path d="M17.7463969,119.083675 L109.253109,119.083675 C106.95599,106.629037 99.6512665,95.9197988 89.4959611,89.0953496 L89.4929961,89.0953496 C96.6566362,82.2780325 101.12165,72.6740264 101.12165,62.0292236 C101.12165,47.4177358 92.7122237,34.761185 80.4500525,28.589939 L46.5494533,28.5923984 C34.2872821,34.761185 25.8803268,47.4177358 25.8803268,62.0289776 C25.8803268,72.6735346 30.3453405,82.2777866 37.5089805,89.0951037 L37.5037918,89.0951037 C27.3482393,95.9197988 20.0435156,106.629037 17.7463969,119.083675 Z" id="Shape" fill="#FCF8F2"></path>
                <path d="M35.0930156,62.0292236 C35.0930156,79.9573902 42.2734572,88.7062805 46.6623696,95.5233516 L46.6623696,95.5233516 C40.4423346,102.347801 36.875216,106.629037 35.4673444,119.083675 L17.746644,119.083675 C20.0437626,106.629037 27.3484864,95.9197988 37.5037918,89.0953496 L37.5087335,89.0953496 C30.3443521,82.2782785 25.8803268,72.6737805 25.8803268,62.0292236 C25.8803268,47.4177358 34.2872821,34.761185 46.5494533,28.5926443 L53.1151556,28.5926443 C45.6026362,34.7614309 35.0930156,41.8101728 35.0930156,62.0292236 Z" id="Shape" fill="#E5E1DC"></path>
                <path d="M81.0361304,33.1281768 C73.9419202,35.5467012 66.469428,36.4544472 59.0920623,35.8560874 C54.6480506,35.494563 50.2366537,34.5843577 45.9631284,33.1281768 C47.2958872,22.7780041 48.641,12.3729878 49.9962432,1.9155874 L77.0030156,1.9155874 C78.3582588,12.3729878 79.7036187,22.7780041 81.0361304,33.1281768 Z" id="Shape" fill="#34ABE0"></path>
                <path d="M61.0835409,1.91534146 L59.0920623,35.8558415 C54.6480506,35.4943171 50.2366537,34.5841118 45.9631284,33.1279309 C47.2958872,22.7777581 48.641,12.3727419 49.9962432,1.91534146 C49.9962432,1.91534146 61.0835409,1.91534146 61.0835409,1.91534146 Z" id="Shape" fill="#279FC9"></path>
                <ellipse id="Oval" fill="#FF525D" cx="63.4997529" cy="109.676909" rx="5.26061673" ry="5.23620122"></ellipse>
                <path d="M61.2718171,58.7135285 L53.0946479,62.5503598 L61.2718171,66.3871911 C64.0984319,67.7135183 67.3505214,65.6609451 67.3505214,62.5503598 L67.3505214,62.5503598 C67.3505214,59.4397744 64.098679,57.3872012 61.2718171,58.7135285 Z" id="Shape" fill="#FF525D"></path>
                <path d="M50.8607821,59.1431768 L50.8607821,55.255437 C50.8607821,54.2227561 50.0194689,53.3853476 48.9819728,53.3853476 C47.9444767,53.3853476 47.1031634,54.2227561 47.1031634,55.255437 L47.1031634,59.1431768 C47.1031634,60.1758577 47.9444767,61.0132663 48.9819728,61.0132663 C50.0194689,61.0132663 50.8607821,60.1758577 50.8607821,59.1431768 Z" id="Shape" fill="#000000"></path>
                <path d="M79.8973307,59.1431768 L79.8973307,55.255437 C79.8973307,54.2227561 79.0562646,53.3853476 78.0185214,53.3853476 C76.9807782,53.3853476 76.1397121,54.2227561 76.1397121,55.255437 L76.1397121,59.1431768 C76.1397121,60.1758577 76.9807782,61.0132663 78.0185214,61.0132663 C79.0562646,61.0132663 79.8973307,60.1758577 79.8973307,59.1431768 Z" id="Shape" fill="#000000"></path>
                <path d="M51.9951342,71.809565 C50.6161712,70.906 48.7457626,72.1592846 49.1195973,73.776061 C49.2989786,74.551248 49.9628872,75.1412459 50.7582432,75.2246179 C51.5758366,75.3104492 52.3721809,74.8357947 52.686716,74.0807744 C53.0281829,73.2603354 52.7282257,72.3075833 51.9951342,71.809565 Z" id="Shape" fill="#000000"></path>
                <path d="M69.5732685,75.470061 C68.6138502,75.8640488 68.1579844,76.9562459 68.5538093,77.9112114 C68.8545078,78.6318008 69.5532549,79.0680894 70.2920292,79.0680894 C70.5299689,79.0680894 70.7733444,79.0233293 71.0085661,78.925939 C71.9679844,78.5319512 72.4238502,77.4397541 72.0280253,76.4847886 C71.6322004,75.5298232 70.5324397,75.0758272 69.5732685,75.470061 Z" id="Shape" fill="#000000"></path>
                <path d="M63.4933288,76.6692344 C62.4563268,76.6716992 61.6169903,77.5095996 61.6194556,78.5417886 C61.6219319,79.5739776 62.4637393,80.4094187 63.4982704,80.4094187 C63.5007412,80.4094187 63.5007412,80.4094187 63.5032121,80.4094187 C64.540214,80.4069593 65.3795506,79.5665996 65.3770852,78.5344106 C65.3743619,77.5022215 64.5328016,76.6667805 63.4957996,76.6692344 C63.4933288,76.6692344 63.4933288,76.6692344 63.4933288,76.6692344 Z" id="Shape" fill="#000000"></path>
                <path d="M58.4434728,77.9134248 C58.8417685,76.9584593 58.3859027,75.8662622 57.4264844,75.469815 C56.4670661,75.0758272 55.3673054,75.5295772 54.9714805,76.4845427 C54.5756556,77.4370488 55.0315214,78.5317053 55.9884689,78.9256931 C56.2239377,79.0228374 56.4668191,79.0703028 56.7074767,79.0703028 C57.4437802,79.0703028 58.1449981,78.6340142 58.4434728,77.9134248 Z" id="Shape" fill="#000000"></path>
                <path d="M77.0907296,71.8120244 C76.4149611,71.3526179 75.4854397,71.4094289 74.8556284,71.9207276 C74.2235934,72.4342398 73.9989961,73.3316565 74.3125428,74.0810203 C74.6204066,74.8168577 75.3856187,75.2907744 76.1864105,75.2297825 C76.9553288,75.17125 77.6189903,74.641998 77.8443288,73.9086199 C78.0830097,73.1319573 77.7739105,72.259626 77.0907296,71.8120244 Z" id="Shape" fill="#000000"></path>
                <path d="M47.504177,93.8517317 C41.6629183,90.9369106 36.730179,86.4825366 33.2399027,80.9696585 C29.6545,75.3067602 27.7591362,68.7575122 27.7591362,62.0294695 C27.7591362,49.757315 33.9771946,38.5844898 44.2056362,32.0750833 C44.1705506,32.3465955 44.135465,32.6190915 44.1006265,32.8906037 C43.987463,33.7712967 44.5117704,34.609935 45.3555545,34.897187 C51.2057082,36.8909817 57.3528541,37.8877561 63.5,37.8877561 C69.647393,37.8877561 75.7945389,36.8909817 81.6446926,34.897187 C82.4884767,34.609689 83.0130311,33.7708049 82.8996206,32.8906037 C82.8650292,32.6227805 82.8304377,32.3537276 82.7958463,32.0859045 C85.0413249,33.5221646 87.1247179,35.1999329 89.0094572,37.1110935 C89.3773619,37.4841768 89.8636187,37.6710874 90.3503696,37.6710874 C90.8252607,37.6710874 91.300893,37.4927846 91.6665739,37.135687 C92.4070778,36.4123923 92.4181965,35.2282154 91.6912821,34.4911484 C88.8893755,31.6496159 85.6965856,29.2638008 82.1907432,27.3865793 C81.0907354,18.8518984 79.982821,10.2830325 78.8674942,1.67629268 C78.7466712,0.743707317 77.9488444,0.0452520325 77.004251,0.0452520325 L49.9959961,0.0452520325 C49.0514027,0.0452520325 48.2535759,0.743461382 48.1327529,1.67629268 C47.017179,10.2847541 45.9090175,18.8553415 44.8087626,27.3919898 C38.7774981,30.6213618 33.6789669,35.3588069 30.0253696,41.1503293 C26.0846634,47.3975691 24.0015175,54.6174817 24.0015175,62.0292236 C24.0015175,69.4638374 26.0967704,76.7029329 30.0607023,82.9636992 C31.3966732,85.0733293 32.9278385,87.0388415 34.6213366,88.8459715 C31.7381401,90.984622 29.104249,93.434872 26.7695739,96.1411402 L10.3836089,76.9594431 L11.8707938,67.9658476 C12.0393035,66.9466931 11.3459922,65.9845955 10.3220856,65.8171138 C9.29916732,65.649878 8.33184241,66.3394797 8.1630856,67.3586341 L6.88789689,75.0694329 L2.69887354,73.7349898 C1.71079377,73.420439 0.653036965,73.9624797 0.336772374,74.9459736 C0.0205077821,75.9297134 0.565322957,76.982315 1.55340272,77.2971118 L7.30422957,79.1290813 L14.039677,87.0137561 L9.63075097,87.6271179 C8.60289105,87.7700061 7.88660117,88.7151341 8.02990856,89.7379776 C8.16110895,90.6730224 8.96610117,91.3495894 9.88821012,91.3495894 C9.9749358,91.3495894 10.0624027,91.343687 10.1506109,91.3313902 L16.9226265,90.3892134 L24.3857296,99.125561 C22.8973093,101.153787 21.5660331,103.297602 20.4109261,105.537823 C19.9372704,106.456636 20.3014689,107.584002 21.2248132,108.055459 C21.499321,108.195642 21.7921128,108.262045 22.0809514,108.262045 C22.763144,108.262045 23.4211226,107.890929 23.7541887,107.24535 C26.9637802,101.019014 31.6454844,95.5981159 37.3459066,91.4878049 C39.9009786,93.7366341 42.7441479,95.6610752 45.8190798,97.1952175 C46.0893872,97.3299898 46.3767432,97.3939329 46.6594047,97.3939329 C47.3477743,97.3939329 48.0109416,97.0159309 48.3403016,96.3617439 C48.8065447,95.4382581 48.4314747,94.3145813 47.504177,93.8517317 Z M51.6479844,3.78592276 L75.3522626,3.78592276 C76.4364572,12.1543516 78.8477276,30.8419654 78.9749747,31.8301321 C68.9387626,34.9215346 58.0619786,34.9217805 48.0252724,31.8301321 C48.1527665,30.8392602 50.5632957,12.1587785 51.6479844,3.78592276 Z" id="Shape" fill="#000000"></path>
                <path d="M19.7620895,111.578232 C18.7742568,111.263681 17.7162529,111.80523 17.3994942,112.788724 C16.7738833,114.732593 16.2688482,116.736717 15.8982257,118.746252 C15.7109377,119.761963 16.3864591,120.73685 17.4069066,120.923268 C17.5215525,120.944173 17.6357043,120.954502 17.7483735,120.954502 C18.6373735,120.954502 19.4277879,120.323433 19.5940739,119.421835 C19.9355409,117.569699 20.4012899,115.721744 20.9779786,113.930108 C21.2947374,112.946122 20.7501693,111.893274 19.7620895,111.578232 Z" id="Shape" fill="#000000"></path>
                <path d="M63.5004942,102.569634 C59.5637412,102.569634 56.3610681,105.757443 56.3610681,109.675925 C56.3610681,113.594407 59.5637412,116.782215 63.5004942,116.782215 C67.4372471,116.782215 70.6399202,113.594407 70.6399202,109.675925 C70.6396732,105.757689 67.4367529,102.569634 63.5004942,102.569634 Z M63.5004942,113.042037 C61.6357685,113.042037 60.1186868,111.531996 60.1186868,109.675925 C60.1186868,107.819854 61.6357685,106.309813 63.5004942,106.309813 C65.3652198,106.309813 66.8823016,107.819854 66.8823016,109.675925 C66.8823016,111.531996 65.3652198,113.042037 63.5004942,113.042037 Z" id="Shape" fill="#000000"></path>
                <path d="M126.663228,74.9462195 C126.346716,73.9622337 125.288218,73.420439 124.300879,73.7352358 L120.111856,75.0696789 L118.83642,67.3588801 C118.667911,66.3397256 117.70108,65.6493862 116.677667,65.8173598 C115.653514,65.9850874 114.960449,66.947185 115.128712,67.9663394 L116.616144,76.959935 L100.223261,96.149748 C97.8982218,93.4464309 95.2710019,90.9900325 92.3813813,88.8444959 C94.0746323,87.0378577 95.6050564,85.0728374 96.9405331,82.9636992 C100.904465,76.7029329 102.999718,69.4638374 102.999718,62.0292236 C102.999718,54.0555203 100.614144,46.3776768 96.1007023,39.8249858 C95.5143774,38.973313 94.3454339,38.7559065 93.4888016,39.340002 C92.6331576,39.9238516 92.4149844,41.0878618 93.0018035,41.9397805 C97.0845817,47.8670589 99.2423463,54.8139837 99.2423463,62.0292236 C99.2423463,68.7572663 97.3472296,75.3067602 93.7615798,80.9694126 C90.2710564,86.4820447 85.3385642,90.9366646 79.4973054,93.8514858 C78.5697607,94.3143354 78.1949377,95.4380122 78.6596984,96.361252 C78.9893054,97.015685 79.6522257,97.393687 80.3408424,97.393687 C80.6239981,97.393687 80.911107,97.3297439 81.1811673,97.1949715 C84.2548638,95.6613211 87.0970447,93.7378638 89.6513755,91.4900183 C98.9080447,98.1701037 105.347488,108.268931 107.404444,119.421343 C107.57073,120.322941 108.360897,120.95401 109.250144,120.95401 C109.362566,120.95401 109.476965,120.943681 109.591611,120.922776 C110.612058,120.736358 111.287827,119.761717 111.100045,118.74576 C109.790265,111.643159 106.84258,104.934791 102.600187,99.1400711 L110.075891,90.3887215 L116.84766,91.3308984 C116.935868,91.3431951 117.023582,91.3490976 117.110307,91.3490976 C118.032416,91.3490976 118.837409,90.6725305 118.968609,89.7374858 C119.112163,88.7146423 118.395626,87.7695142 117.367767,87.626626 L112.959088,87.0132642 L119.694535,79.1285894 L125.445362,77.2966199 C126.434677,76.982561 126.979492,75.9299593 126.663228,74.9462195 Z" id="Shape" fill="#000000"></path>
                <path d="M69.2295778,62.5503598 C69.2295778,60.4456484 68.1634202,58.5160427 66.3775136,57.3886768 C64.591607,56.261311 62.3834377,56.1243252 60.4705311,57.0219878 L52.2931148,60.8588191 C51.6353833,61.1674675 51.2153444,61.8265732 51.2153444,62.5503598 C51.2153444,63.2741463 51.6351362,63.933252 52.2931148,64.2419004 L60.4705311,68.0787317 C61.3078911,68.4717358 62.2020798,68.6665163 63.0925623,68.6665163 C64.2355623,68.6665163 65.3731265,68.3455711 66.3772665,67.7120427 C68.1634202,66.5846768 69.2295778,64.6553171 69.2295778,62.5503598 Z M64.3652802,64.5537459 C63.6618385,64.9979045 62.8262082,65.0497967 62.0731031,64.6961423 L57.5006089,62.5508516 L62.0731031,60.405561 L62.0731031,60.405561 C62.8271965,60.0521524 63.6620856,60.1040447 64.3655272,60.5479573 C65.0689689,60.9921159 65.4722063,61.7220508 65.4722063,62.5508516 C65.4724533,63.3794065 65.0684747,64.1095874 64.3652802,64.5537459 Z" id="Shape" fill="#000000"></path>
            </g>
        </g>
    </g>
</svg>